<?xml version="1.0" encoding="UTF-8" standalone="no" ?><!DOCTYPE svg PUBLIC "-//W3C//DTD SVG 1.1//EN" "http://www.w3.org/Graphics/SVG/1.1/DTD/svg11.dtd">
<svg xmlns="http://www.w3.org/2000/svg" xmlns:xlink="http://www.w3.org/1999/xlink" version="1.1" width="800" height="500" xml:space="preserve"><desc>Created with Fabric.js 1.5.0</desc><defs></defs><g style="stroke: none; stroke-width: 1; stroke-dasharray: ; stroke-linecap: butt; stroke-linejoin: miter; stroke-miterlimit: 10; fill: none; fill-rule: nonzero; opacity: 1;" transform="translate(148.57999999999998 127.52999999999999) scale(1.27 1.27)" >
<path d="M 80.15 30.4 c 1.766 0.7 3.467 1.583 5.1 2.65 c 1.733 9.833 3.467 19.667 5.199 29.5 c -5 -3.233 -10.466 -5.616 -16.399 -7.149 c -9.933 -2.4 -19.833 -2.367 -29.7 0.1 c -9.833 2.5 -18.567 7.117 -26.2 13.85 c 6.067 -9.133 14.117 -15.566 24.15 -19.3 c 10.033 -3.767 20.55 -4.017 31.55 -0.75 c 3.768 1.167 7.25 2.75 10.45 4.75 L 80.15 30.4 z" style="stroke: none; stroke-width: 1; stroke-dasharray: ; stroke-linecap: butt; stroke-linejoin: miter; stroke-miterlimit: 10; fill: #f69320; fill-rule: evenodd; opacity: 1;" transform="" stroke-linecap="round" />
<path d="M 61.65 1.5 l 1.149 9.3 l 0.25 1.5 l 2.75 16.4 c -12.866 -1.133 -24.417 1.617 -34.65 8.25 C 20.917 43.617 13.717 52.934 9.55 64.9 c -0.066 0.266 -0.15 0.533 -0.25 0.8 l -0.1 0.35 c -0.034 0.3 -0.1 0.601 -0.2 0.9 L 8.85 67.2 c 0 0.333 -0.067 0.667 -0.2 1 v 0.149 C 8.617 68.717 8.533 69.1 8.4 69.5 v 0.1 c 0 0.334 -0.083 0.717 -0.25 1.15 C 8.083 71.184 8.017 71.6 7.95 72 c -0.133 -0.133 -0.25 -0.283 -0.35 -0.45 c -0.133 -0.2 -0.25 -0.35 -0.35 -0.45 C 7.217 71 7.133 70.883 7 70.75 c 0 -0.2 -0.067 -0.35 -0.2 -0.45 c -0.1 -0.134 -0.183 -0.25 -0.25 -0.35 L 6.3 69.6 C 0.6 60.267 -1.2 49.9 0.9 38.5 C 4.267 24.433 11.717 13.983 23.25 7.15 C 34.783 0.317 47.583 -1.567 61.65 1.5 z" style="stroke: none; stroke-width: 1; stroke-dasharray: ; stroke-linecap: butt; stroke-linejoin: miter; stroke-miterlimit: 10; fill: #f69320; fill-rule: evenodd; opacity: 1;" transform="" stroke-linecap="round" />
<path d="M 69.1 17.35 c 1.5 0.567 3 1.25 4.5 2.05 L 78.2 45.95 c -1 -0.367 -2 -0.717 -3 -1.05 c -11.967 -3.6 -23.45 -3.367 -34.45 0.7 c -10.967 4.067 -19.767 11.1 -26.4 21.1 c 3.433 -10.101 9.367 -18.217 17.8 -24.35 c 8.467 -6.133 18.25 -9.2 29.35 -9.2 c 3.667 0.1 7.167 0.567 10.5 1.4 L 69.1 17.35 z" style="stroke: none; stroke-width: 1; stroke-dasharray: ; stroke-linecap: butt; stroke-linejoin: miter; stroke-miterlimit: 10; fill: #f69320; fill-rule: evenodd; opacity: 1;" transform="" stroke-linecap="round" />
<path d="M 92.2 69.8 c -0.067 0.134 -0.149 0.25 -0.25 0.351 c -6.7 12.566 -16.399 20.916 -29.101 25.049 C 50.117 99.367 37.35 98.4 24.55 92.3 c -4.633 -2.366 -8.75 -5.3 -12.35 -8.8 c 0.467 -0.667 0.933 -1.35 1.4 -2.051 c 6.067 -8.299 13.733 -14.433 23 -18.399 c 9.3 -3.933 18.9 -5.417 28.8 -4.45 C 75.334 59.6 84.268 63.333 92.2 69.8 z" style="stroke: none; stroke-width: 1; stroke-dasharray: ; stroke-linecap: butt; stroke-linejoin: miter; stroke-miterlimit: 10; fill: #0b535d; fill-rule: evenodd; opacity: 1;" transform="" stroke-linecap="round" />
<path d="M 66.35 1.1 c 1.166 0.467 2.316 1 3.45 1.6 c 11.233 5.967 19.134 14.45 23.7 25.45 c 4.566 11.034 5.083 22.5 1.55 34.401 l -5.65 -32.301 c -3.233 -2.2 -6.649 -3.967 -10.25 -5.3 L 77.75 16.3 c -2.867 -1.633 -5.967 -2.967 -9.301 -4 l -0.25 -0.15 L 66.35 1.1 z" style="stroke: none; stroke-width: 1; stroke-dasharray: ; stroke-linecap: butt; stroke-linejoin: miter; stroke-miterlimit: 10; fill: #0b535d; fill-rule: evenodd; opacity: 1;" transform="" stroke-linecap="round" />
</g>
	<g transform="translate(501.08 188.06) scale(1.07 0.99)">
		<text font-family="Gruppo" font-size="45" font-weight="bold" style="stroke: none; stroke-width: 1; stroke-dasharray: ; stroke-linecap: butt; stroke-linejoin: miter; stroke-miterlimit: 10; fill: #0b535d; fill-rule: nonzero; opacity: 1;" ><tspan x="-203.2471" y="10.107" fill="#0b535d">VMB  FORMACIÓN</tspan></text>
	</g>
	<g transform="translate(400 444.82)">
		<text font-family="Handlee" font-size="50" font-weight="normal" style="stroke: none; stroke-width: 1; stroke-dasharray: ; stroke-linecap: butt; stroke-linejoin: miter; stroke-miterlimit: 10; fill: #437269; fill-rule: nonzero; opacity: 1;" ><tspan x="0" y="11.23" fill="#437269"></tspan></text>
	</g>
</svg>